<svg xmlns="http://www.w3.org/2000/svg" viewBox="0 0 1280 720">
  <defs>
    <linearGradient id="sky" x1="0" y1="0" x2="0" y2="1"><stop stop-color="#83a8c1"/><stop offset="1" stop-color="#dce7e9"/></linearGradient>
    <linearGradient id="road" x1="0" y1="0" x2="0" y2="1"><stop stop-color="#48545d"/><stop offset="1" stop-color="#18212a"/></linearGradient>
  </defs>
  <rect width="1280" height="720" fill="url(#sky)"/>
  <rect y="210" width="1280" height="145" fill="#5e746d"/>
  <g fill="#263c41"><rect x="0" y="122" width="220" height="190"/><rect x="228" y="156" width="190" height="156"/><rect x="1010" y="136" width="270" height="176"/></g>
  <g fill="#d4e4dd" opacity=".65"><rect x="24" y="150" width="34" height="52"/><rect x="78" y="150" width="34" height="52"/><rect x="254" y="183" width="38" height="42"/><rect x="1048" y="164" width="46" height="48"/></g>
  <path d="M0 720V387l447-84h388l445 84v333z" fill="url(#road)"/>
  <path d="m625 316-28 404h20l17-404zm31 0 28 404h20l-38-404z" fill="#edf3da" opacity=".8"/>
  <path d="m318 342-129 378h14l136-381zm648 0 137 378h15L987 338z" fill="#f4f5df" opacity=".72"/>
  <path d="M0 390 454 306" stroke="#c6c9c5" stroke-width="7"/><path d="m829 306 451 84" stroke="#c6c9c5" stroke-width="7"/>
  <g transform="translate(410 318)"><path d="M20 44 48 8h132l32 38 14 54H0z" fill="#234a68"/><path d="M62 15h105l26 31H39z" fill="#9fc3cf"/><circle cx="42" cy="102" r="18" fill="#111820"/><circle cx="188" cy="102" r="18" fill="#111820"/><rect x="10" y="55" width="206" height="42" rx="10" fill="#2f658c"/></g>
  <g transform="translate(786 286)"><circle cx="0" cy="11" r="13" fill="#e2b599"/><path d="M-11 25h23l8 48-15 41h-12l-14-40z" fill="#eb7b58"/><path d="m-9 62-17 32m35-31 17 29" stroke="#2a3440" stroke-width="8" stroke-linecap="round"/></g>
  <g fill="#152a2e"><circle cx="196" cy="278" r="45"/><circle cx="1110" cy="276" r="52"/><circle cx="1175" cy="290" r="38"/></g>
  <rect x="0" y="0" width="1280" height="720" fill="none" stroke="#9bb7c2" stroke-width="2"/>
</svg>
